<svg width="256" height="256" viewBox="0 0 256 256" fill="none" xmlns="http://www.w3.org/2000/svg">
<rect x="0.5" y="0.5" width="255" height="255" rx="63.5" fill="url(#paint0_linear_293_510)" stroke="url(#paint1_linear_293_510)"/>
<mask id="path-2-inside-1_293_510" fill="white">
<path d="M131.806 200.466C138.903 200.466 143.077 199.986 149.369 198.466C175.481 192.124 196.391 171.378 202.783 145.471C204.315 139.229 204.799 135.088 204.799 128.046C204.799 122.385 204.658 120.544 203.871 115.843C202.057 104.92 197.197 93.6769 190.462 84.7745C178.263 68.6499 160.6 58.5072 140.476 56.0265C139.145 55.8664 136.625 55.6664 134.891 55.5863L131.705 55.4663V61.468L134.488 61.608C146.142 62.1882 156.406 65.189 165.943 70.8105C187.841 83.7341 200.605 107.961 198.649 132.868C197.379 149.092 190.583 163.776 179.13 175.099C160.116 193.884 131.987 199.646 107.004 189.823C88.7357 182.661 74.1171 167.217 68.0881 148.732C66.1322 142.73 64.761 134.628 64.761 129.167V128.046L67.2412 126.446C68.5921 125.566 70.7699 124.165 72.0603 123.345L74.4194 121.845L74.48 112.242L74.5405 102.639L76.5165 101.079L78.4725 99.5184V93.3369H71.4151V74.7316H67.9872V93.3369H55.6873V74.7316H52.2595V93.3369H44.7988L44.819 96.4777V99.6384L46.8354 101.179L48.8316 102.739V121.845L53.5096 124.845C56.0704 126.486 58.2683 127.866 58.4094 127.906C58.5707 127.946 58.6917 128.926 58.7724 131.107C59.5587 149.732 67.4428 167.097 81.0331 180.161C88.8971 187.743 97.9505 193.224 108.436 196.765C116.239 199.406 122.913 200.466 131.806 200.466ZM133.922 166.757C138.94 166.752 140.483 166.705 141.907 166.223L142.137 166.141C142.637 165.955 143.143 165.712 143.803 165.396C144.933 164.857 145.739 164.256 146.949 163.056C148.703 161.336 149.429 160.255 150.235 158.175L150.74 156.854L150.881 141.25L150.889 140.316C150.966 132.096 151.023 124.642 151.042 123.485L151.062 121.344L154.798 121.345C154.879 121.345 154.957 121.345 155.033 121.345L155.465 121.346C157.908 121.343 157.705 121.228 157.192 119.524C156.688 117.823 156.023 116.703 154.954 115.723C153.845 114.683 153.361 114.403 152.071 113.943L151.163 113.622L151.022 106.22C150.841 97.9581 150.719 96.8976 149.489 94.477C148.461 92.4365 145.88 89.8958 143.803 88.8956C142.977 88.4754 141.706 88.0154 140.98 87.8553C140.078 87.6316 138.668 87.5557 134.413 87.5517H133.321C132.937 87.5528 132.533 87.5537 132.108 87.5551L130.524 87.5557C125.518 87.5602 124.565 87.598 123.515 87.8767L123.36 87.9193C123.255 87.9489 123.148 87.9807 123.035 88.0154C120.494 88.7754 119.244 89.4958 117.489 91.2361C116.219 92.4965 115.695 93.1967 115.029 94.537C113.679 97.298 113.699 97.0978 113.578 105.62L113.457 113.402L111.743 114.283C110.735 114.803 109.706 115.503 109.243 116.003C108.255 117.063 107.327 118.984 107.166 120.304L107.045 121.324L110.251 121.384L113.457 121.444L113.557 139.049C113.652 154.279 113.587 156.486 114.29 158.229L114.375 158.429L114.467 158.629L114.532 158.764C114.689 159.084 114.873 159.43 115.09 159.875C116.501 162.796 119.324 165.097 122.994 166.337C123.104 166.374 123.208 166.408 123.312 166.439L123.436 166.474C124.314 166.713 125.355 166.751 130.25 166.757H133.922ZM121.078 121.17L119.51 116.351C118.655 113.715 117.942 111.388 117.942 111.182C117.942 110.276 123.44 108.443 128.023 107.846C130.609 107.516 132.401 107.496 135.924 107.743C139.121 107.969 141.81 108.505 144.213 109.39C145.638 109.926 147.39 110.729 147.654 110.956C147.736 111.038 144.681 120.49 144.457 120.881C144.315 121.087 143.989 121.087 142.869 120.902C141.421 120.665 138.064 120.548 134.399 120.537H133.291C128.652 120.55 123.783 120.728 121.811 121.046L121.078 121.17ZM133.979 156.261C129.441 156.366 126.999 156.157 123.946 155.445C121.972 154.963 117.942 153.246 117.942 152.869C117.922 152.743 118.634 150.398 119.509 147.676C120.384 144.933 121.137 142.693 121.199 142.693C121.223 142.693 121.465 142.716 121.855 142.755L122.173 142.787C122.745 142.845 123.519 142.923 124.353 143.007C127.976 143.363 136.585 143.426 140.167 143.091C141.118 143.004 142.117 142.928 142.795 142.882L143.13 142.86C143.279 142.85 143.4 142.843 143.484 142.839L144.278 142.798L144.949 144.682C145.336 145.708 146.089 147.969 146.638 149.707L147.656 152.848L147.208 153.204C146.333 153.874 142.649 155.235 140.431 155.696C138.701 156.052 137.215 156.178 133.979 156.261Z"/>
</mask>
<path d="M131.806 200.466C138.903 200.466 143.077 199.986 149.369 198.466C175.481 192.124 196.391 171.378 202.783 145.471C204.315 139.229 204.799 135.088 204.799 128.046C204.799 122.385 204.658 120.544 203.871 115.843C202.057 104.92 197.197 93.6769 190.462 84.7745C178.263 68.6499 160.6 58.5072 140.476 56.0265C139.145 55.8664 136.625 55.6664 134.891 55.5863L131.705 55.4663V61.468L134.488 61.608C146.142 62.1882 156.406 65.189 165.943 70.8105C187.841 83.7341 200.605 107.961 198.649 132.868C197.379 149.092 190.583 163.776 179.13 175.099C160.116 193.884 131.987 199.646 107.004 189.823C88.7357 182.661 74.1171 167.217 68.0881 148.732C66.1322 142.73 64.761 134.628 64.761 129.167V128.046L67.2412 126.446C68.5921 125.566 70.7699 124.165 72.0603 123.345L74.4194 121.845L74.48 112.242L74.5405 102.639L76.5165 101.079L78.4725 99.5184V93.3369H71.4151V74.7316H67.9872V93.3369H55.6873V74.7316H52.2595V93.3369H44.7988L44.819 96.4777V99.6384L46.8354 101.179L48.8316 102.739V121.845L53.5096 124.845C56.0704 126.486 58.2683 127.866 58.4094 127.906C58.5707 127.946 58.6917 128.926 58.7724 131.107C59.5587 149.732 67.4428 167.097 81.0331 180.161C88.8971 187.743 97.9505 193.224 108.436 196.765C116.239 199.406 122.913 200.466 131.806 200.466ZM133.922 166.757C138.94 166.752 140.483 166.705 141.907 166.223L142.137 166.141C142.637 165.955 143.143 165.712 143.803 165.396C144.933 164.857 145.739 164.256 146.949 163.056C148.703 161.336 149.429 160.255 150.235 158.175L150.74 156.854L150.881 141.25L150.889 140.316C150.966 132.096 151.023 124.642 151.042 123.485L151.062 121.344L154.798 121.345C154.879 121.345 154.957 121.345 155.033 121.345L155.465 121.346C157.908 121.343 157.705 121.228 157.192 119.524C156.688 117.823 156.023 116.703 154.954 115.723C153.845 114.683 153.361 114.403 152.071 113.943L151.163 113.622L151.022 106.22C150.841 97.9581 150.719 96.8976 149.489 94.477C148.461 92.4365 145.88 89.8958 143.803 88.8956C142.977 88.4754 141.706 88.0154 140.98 87.8553C140.078 87.6316 138.668 87.5557 134.413 87.5517H133.321C132.937 87.5528 132.533 87.5537 132.108 87.5551L130.524 87.5557C125.518 87.5602 124.565 87.598 123.515 87.8767L123.36 87.9193C123.255 87.9489 123.148 87.9807 123.035 88.0154C120.494 88.7754 119.244 89.4958 117.489 91.2361C116.219 92.4965 115.695 93.1967 115.029 94.537C113.679 97.298 113.699 97.0978 113.578 105.62L113.457 113.402L111.743 114.283C110.735 114.803 109.706 115.503 109.243 116.003C108.255 117.063 107.327 118.984 107.166 120.304L107.045 121.324L110.251 121.384L113.457 121.444L113.557 139.049C113.652 154.279 113.587 156.486 114.29 158.229L114.375 158.429L114.467 158.629L114.532 158.764C114.689 159.084 114.873 159.43 115.09 159.875C116.501 162.796 119.324 165.097 122.994 166.337C123.104 166.374 123.208 166.408 123.312 166.439L123.436 166.474C124.314 166.713 125.355 166.751 130.25 166.757H133.922ZM121.078 121.17L119.51 116.351C118.655 113.715 117.942 111.388 117.942 111.182C117.942 110.276 123.44 108.443 128.023 107.846C130.609 107.516 132.401 107.496 135.924 107.743C139.121 107.969 141.81 108.505 144.213 109.39C145.638 109.926 147.39 110.729 147.654 110.956C147.736 111.038 144.681 120.49 144.457 120.881C144.315 121.087 143.989 121.087 142.869 120.902C141.421 120.665 138.064 120.548 134.399 120.537H133.291C128.652 120.55 123.783 120.728 121.811 121.046L121.078 121.17ZM133.979 156.261C129.441 156.366 126.999 156.157 123.946 155.445C121.972 154.963 117.942 153.246 117.942 152.869C117.922 152.743 118.634 150.398 119.509 147.676C120.384 144.933 121.137 142.693 121.199 142.693C121.223 142.693 121.465 142.716 121.855 142.755L122.173 142.787C122.745 142.845 123.519 142.923 124.353 143.007C127.976 143.363 136.585 143.426 140.167 143.091C141.118 143.004 142.117 142.928 142.795 142.882L143.13 142.86C143.279 142.85 143.4 142.843 143.484 142.839L144.278 142.798L144.949 144.682C145.336 145.708 146.089 147.969 146.638 149.707L147.656 152.848L147.208 153.204C146.333 153.874 142.649 155.235 140.431 155.696C138.701 156.052 137.215 156.178 133.979 156.261Z" fill="url(#paint2_linear_293_510)" stroke="url(#paint3_linear_293_510)" stroke-width="2" mask="url(#path-2-inside-1_293_510)"/>
<defs>
<linearGradient id="paint0_linear_293_510" x1="0" y1="0" x2="256" y2="256" gradientUnits="userSpaceOnUse">
<stop stop-color="#272727"/>
<stop offset="1"/>
</linearGradient>
<linearGradient id="paint1_linear_293_510" x1="-67.5" y1="-64" x2="340" y2="431.5" gradientUnits="userSpaceOnUse">
<stop stop-color="white" stop-opacity="0.5"/>
<stop offset="0.51" stop-color="#CACACA" stop-opacity="0"/>
<stop offset="1" stop-color="#999999" stop-opacity="0.25"/>
</linearGradient>
<linearGradient id="paint2_linear_293_510" x1="28.7988" y1="26.6663" x2="261.332" y2="295.466" gradientUnits="userSpaceOnUse">
<stop stop-color="#FF0000"/>
<stop offset="1"/>
</linearGradient>
<linearGradient id="paint3_linear_293_510" x1="12.7988" y1="18.133" x2="270.932" y2="446.933" gradientUnits="userSpaceOnUse">
<stop stop-color="white" stop-opacity="0.5"/>
<stop offset="0.49" stop-color="#CDCDCD" stop-opacity="0"/>
<stop offset="1" stop-color="white" stop-opacity="0.25"/>
</linearGradient>
</defs>
</svg>
